{
  "asset": {
    "generator": "Khronos glTF Blender I/O v3.2.43",
    "version": "2.0"
  },
  "scene": 0,
  "scenes": [
    {
      "name": "Scene",
      "nodes": [
        0
      ]
    }
  ],
  "nodes": [
    {
      "mesh": 0,
      "name": "sphere_gltf"
    }
  ],
  "materials": [
    {
      "doubleSided": true,
      "name": "hexagonal_concrete_paving",
      "normalTexture": {
        "index": 0
      },
      "pbrMetallicRoughness": {
        "baseColorTexture": {
          "index": 1
        },
        "metallicFactor": 0,
        "metallicRoughnessTexture": {
          "index": 2
        }
      }
    }
  ],
  "meshes": [
    {
      "name": "Sphere.001",
      "primitives": [
        {
          "attributes": {
            "POSITION": 0,
            "NORMAL": 1,
            "TEXCOORD_0": 2
          },
          "indices": 3,
          "material": 0
        }
      ]
    }
  ],
  "textures": [
    {
      "sampler": 0,
      "source": 0
    },
    {
      "sampler": 0,
      "source": 1
    },
    {
      "sampler": 0,
      "source": 2
    }
  ],
  "images": [
    {
      "mimeType": "image/jpeg",
      "name": "hexagonal_concrete_paving_nor_gl",
      "uri": "textures/hexagonal_concrete_paving_nor_gl_4k.jpg"
    },
    {
      "mimeType": "image/jpeg",
      "name": "hexagonal_concrete_paving_diff",
      "uri": "textures/hexagonal_concrete_paving_diff_4k.jpg"
    },
    {
      "mimeType": "image/jpeg",
      "name": "hexagonal_concrete_paving_rough",
      "uri": "textures/hexagonal_concrete_paving_arm_4k.jpg"
    }
  ],
  "accessors": [
    {
      "bufferView": 0,
      "componentType": 5126,
      "count": 53916,
      "max": [
        0.8019911646842957,
        0.8023340106010437,
        0.8024693727493286
      ],
      "min": [
        -0.8022645115852356,
        -0.8023975491523743,
        -0.8024652600288391
      ],
      "type": "VEC3"
    },
    {
      "bufferView": 1,
      "componentType": 5126,
      "count": 53916,
      "type": "VEC3"
    },
    {
      "bufferView": 2,
      "componentType": 5126,
      "count": 53916,
      "type": "VEC2"
    },
    {
      "bufferView": 3,
      "componentType": 5123,
      "count": 322170,
      "type": "SCALAR"
    }
  ],
  "bufferViews": [
    {
      "buffer": 0,
      "byteLength": 646992,
      "byteOffset": 0
    },
    {
      "buffer": 0,
      "byteLength": 646992,
      "byteOffset": 646992
    },
    {
      "buffer": 0,
      "byteLength": 431328,
      "byteOffset": 1293984
    },
    {
      "buffer": 0,
      "byteLength": 644340,
      "byteOffset": 1725312
    }
  ],
  "samplers": [
    {
      "magFilter": 9729,
      "minFilter": 9987
    }
  ],
  "buffers": [
    {
      "byteLength": 2369652,
      "uri": "hexagonal_concrete_paving.bin"
    }
  ]
}